<?xml version="1.0" encoding="UTF-8"?> <!-- Generator: Adobe Illustrator 24.0.0, SVG Export Plug-In . SVG Version: 6.00 Build 0) --> <svg xmlns="http://www.w3.org/2000/svg" xmlns:xlink="http://www.w3.org/1999/xlink" version="1.1" id="Layer_1" x="0px" y="0px" viewBox="0 0 255.521 80" style="enable-background:new 0 0 255.521 80;" xml:space="preserve"> <style type="text/css"> .st0{fill:#E2E2E2;} .st1{fill-rule:evenodd;clip-rule:evenodd;fill:#E2E2E2;} </style> <g> <path class="st0" d="M110.762,46.273c-0.519,0.613-2.83,2.5-6.603,2.5c-7.169,0-11.697-5.33-11.697-13.018 c0-7.594,5-12.971,12.121-12.971c3.632,0,5.99,1.745,6.698,2.547v-1.934h7.357v21.79c0,9.15-6.367,12.027-13.725,12.027 c-3.49,0-6.933-0.99-9.15-2.122l2.311-6.037c0.707,0.33,3.49,1.509,6.839,1.509c2.924,0,5.849-0.66,5.849-3.679V46.273z M105.622,29.718c-3.16,0-5.283,2.311-5.283,5.99c0,3.632,2.123,6.131,5.33,6.131c3.113,0,5.33-2.217,5.33-6.131 C110.999,32.406,109.017,29.718,105.622,29.718z"></path> <path class="st0" d="M131.281,32.265c2.17,0,3.868,0.519,4.764,0.896v-0.896c0-1.509-1.226-2.689-3.773-2.689 c-2.17,0-4.292,0.613-6.226,1.556l-2.924-5.283c2.641-1.745,5.99-3.066,10.094-3.066c8.537,0,10.706,4.386,10.706,10.046V48.16 h-7.028l-0.424-1.368c-1.274,1.274-3.066,1.981-5.613,1.981c-4.858,0-9.197-2.924-9.197-8.301 C121.66,35.519,125.433,32.265,131.281,32.265z M132.885,42.736c1.886,0,3.301-0.896,3.301-2.547c0-1.698-1.462-2.641-3.349-2.641 c-1.886,0-3.301,1.038-3.301,2.641C129.536,41.84,131.046,42.736,132.885,42.736z"></path> <path class="st0" d="M169.911,48.16h-7.876V33.397c0-2.217-1.085-3.537-2.971-3.537c-1.84,0-3.019,1.273-3.019,3.537V48.16h-7.877 V23.398h7.688v2.547c0.849-1.509,2.829-3.16,6.131-3.16c2.924,0,5.094,1.226,6.414,3.255c1.509-1.934,3.82-3.255,7.028-3.255 c5.707,0,8.395,3.679,8.395,8.914V48.16h-7.876V33.397c0-2.217-1.132-3.537-3.019-3.537c-1.839,0-3.019,1.415-3.019,3.537V48.16z"></path> <path class="st0" d="M200.336,22.785c7.971,0,13.584,5.471,13.584,12.971c0,7.452-5.754,13.018-13.584,13.018 c-7.877,0-13.442-5.471-13.442-12.923C186.893,28.35,192.694,22.785,200.336,22.785z M200.336,41.84 c3.254,0,5.707-2.547,5.707-6.084c0-3.632-2.499-6.037-5.707-6.037c-3.255,0-5.566,2.5-5.566,6.131 C194.77,39.434,197.128,41.84,200.336,41.84z"></path> <path class="st0" d="M231.419,30.803c-0.33-0.047-0.708-0.094-1.274-0.094c-3.82,0-5.094,2.783-5.094,6.509V48.16h-7.876V23.398 h7.688V26.7c1.179-2.406,3.49-3.915,6.556-3.915V30.803z"></path> <path class="st0" d="M242.881,32.265c2.169,0,3.868,0.519,4.764,0.896v-0.896c0-1.509-1.226-2.689-3.773-2.689 c-2.17,0-4.292,0.613-6.226,1.556l-2.924-5.283c2.641-1.745,5.99-3.066,10.093-3.066c8.537,0,10.706,4.386,10.706,10.046V48.16 h-7.027l-0.425-1.368c-1.273,1.274-3.066,1.981-5.612,1.981c-4.858,0-9.197-2.924-9.197-8.301 C233.26,35.519,237.033,32.265,242.881,32.265z M244.485,42.736c1.886,0,3.301-0.896,3.301-2.547c0-1.698-1.462-2.641-3.349-2.641 s-3.301,1.038-3.301,2.641C241.136,41.84,242.646,42.736,244.485,42.736z"></path> </g> <g> <path class="st1" d="M0.242,50.654c1.007,3.759,4.871,5.99,8.631,4.983c3.759-1.008,5.99-4.872,4.983-8.632 c-1.008-3.76-4.872-5.99-8.632-4.983C1.465,43.031-0.766,46.895,0.242,50.654z"></path> <path class="st1" d="M26.098,43.726c0.463,1.735,2.25,2.766,3.981,2.298c1.735-0.464,2.766-2.247,2.302-3.982 c-0.464-1.735-2.247-2.765-3.982-2.301C26.663,40.209,25.634,41.991,26.098,43.726z"></path> <path class="st1" d="M14.254,40.001c0,2.841,2.304,5.148,5.148,5.148s5.148-2.307,5.148-5.148c0-2.844-2.304-5.152-5.148-5.152 S14.254,37.157,14.254,40.001z"></path> <path class="st1" d="M50.654,79.758c3.759-1.008,5.99-4.872,4.983-8.631c-1.008-3.76-4.872-5.991-8.631-4.983 c-3.76,1.008-5.991,4.872-4.983,8.632C43.031,78.534,46.895,80.765,50.654,79.758z"></path> <path class="st1" d="M43.726,53.902c1.736-0.464,2.766-2.247,2.298-3.982c-0.464-1.735-2.247-2.765-3.982-2.301 c-1.736,0.464-2.765,2.25-2.301,3.982C40.208,53.336,41.991,54.366,43.726,53.902z"></path> <path class="st1" d="M40.001,65.75c2.844,0,5.148-2.307,5.148-5.152c0-2.844-2.304-5.149-5.148-5.149 c-2.844,0-5.152,2.305-5.152,5.149C34.85,63.443,37.157,65.75,40.001,65.75z"></path> <path class="st1" d="M19.421,75.646c3.369,1.944,7.681,0.79,9.626-2.581c1.945-3.369,0.792-7.679-2.581-9.626 c-3.368-1.945-7.681-0.792-9.626,2.581C14.895,69.391,16.049,73.701,19.421,75.646z"></path> <path class="st1" d="M32.804,52.466c1.557,0.896,3.546,0.366,4.443-1.192c0.899-1.554,0.365-3.544-1.19-4.443 c-1.557-0.899-3.546-0.365-4.442,1.192C30.715,49.577,31.25,51.567,32.804,52.466z"></path> <path class="st1" d="M21.794,58.208c2.009,2.008,5.269,2.008,7.282,0c2.011-2.011,2.011-5.273,0-7.284 c-2.012-2.011-5.273-2.011-7.282,0C19.783,52.936,19.783,56.197,21.794,58.208z"></path> <path class="st1" d="M75.646,60.579c1.944-3.369,0.79-7.679-2.577-9.627c-3.372-1.944-7.682-0.79-9.629,2.581 c-1.945,3.372-0.788,7.682,2.58,9.626C69.391,65.104,73.701,63.951,75.646,60.579z"></path> <path class="st1" d="M52.466,47.197c0.896-1.554,0.365-3.544-1.192-4.443c-1.554-0.899-3.544-0.365-4.443,1.192 c-0.897,1.554-0.365,3.544,1.192,4.443C49.577,49.284,51.566,48.751,52.466,47.197z"></path> <path class="st1" d="M58.208,58.208c2.008-2.011,2.008-5.273,0-7.284c-2.011-2.011-5.273-2.011-7.284,0 c-2.011,2.011-2.011,5.273,0,7.284C52.936,60.216,56.197,60.216,58.208,58.208z"></path> <path class="st1" d="M60.582,4.354c-3.371-1.945-7.681-0.792-9.629,2.581c-1.944,3.369-0.788,7.677,2.581,9.626 c3.372,1.945,7.681,0.791,9.626-2.581C65.104,10.611,63.951,6.299,60.582,4.354z"></path> <path class="st1" d="M47.197,27.535c-1.554-0.896-3.544-0.362-4.443,1.192c-0.899,1.557-0.365,3.544,1.192,4.443 c1.554,0.899,3.544,0.365,4.443-1.192C49.284,30.424,48.754,28.434,47.197,27.535z"></path> <path class="st1" d="M58.208,21.796c-2.011-2.012-5.273-2.012-7.284,0c-2.011,2.008-2.011,5.268,0,7.281 c2.011,2.011,5.273,2.011,7.284,0C60.216,27.064,60.216,23.803,58.208,21.796z"></path> <path class="st1" d="M79.758,29.346c-1.008-3.76-4.872-5.988-8.631-4.983c-3.76,1.008-5.991,4.872-4.983,8.631 c1.008,3.759,4.871,5.99,8.631,4.983C78.534,36.97,80.765,33.105,79.758,29.346z"></path> <path class="st1" d="M53.902,36.274c-0.464-1.734-2.247-2.765-3.982-2.297c-1.735,0.464-2.765,2.247-2.301,3.982 c0.464,1.734,2.25,2.765,3.984,2.301C53.339,39.795,54.37,38.009,53.902,36.274z"></path> <path class="st1" d="M65.749,40.001c0-2.844-2.306-5.152-5.152-5.152c-2.844,0-5.148,2.307-5.148,5.152 c0,2.841,2.304,5.148,5.148,5.148C63.443,45.15,65.749,42.842,65.749,40.001z"></path> <path class="st1" d="M29.349,0.242c-3.759,1.008-5.99,4.872-4.982,8.631c1.007,3.759,4.868,5.99,8.628,4.983 c3.759-1.008,5.99-4.872,4.982-8.631C36.97,1.465,33.105-0.766,29.349,0.242z"></path> <path class="st1" d="M36.274,26.098c-1.732,0.464-2.761,2.247-2.297,3.982c0.464,1.734,2.247,2.765,3.981,2.301 c1.735-0.464,2.766-2.247,2.302-3.982C39.795,26.663,38.009,25.634,36.274,26.098z"></path> <path class="st1" d="M40.001,14.254c-2.844,0-5.152,2.304-5.152,5.148s2.307,5.148,5.152,5.148c2.844,0,5.148-2.304,5.148-5.148 S42.846,14.254,40.001,14.254z"></path> <path class="st1" d="M4.354,19.421C2.409,22.79,3.563,27.1,6.935,29.047c3.368,1.945,7.677,0.792,9.626-2.58 c1.945-3.369,0.792-7.682-2.581-9.627C10.611,14.896,6.299,16.05,4.354,19.421z"></path> <path class="st1" d="M27.538,32.804c-0.9,1.557-0.365,3.546,1.188,4.443c1.557,0.899,3.546,0.365,4.443-1.19 c0.899-1.556,0.365-3.546-1.188-4.442C30.424,30.715,28.434,31.25,27.538,32.804z"></path> <path class="st1" d="M21.794,21.796c-2.011,2.008-2.011,5.268,0,7.281c2.009,2.011,5.269,2.011,7.282,0 c2.011-2.012,2.011-5.273,0-7.281C27.064,19.783,23.803,19.783,21.794,21.796z"></path> </g> </svg> 