<?xml version="1.0" encoding="UTF-8"?> <!-- Generator: Adobe Illustrator 24.0.0, SVG Export Plug-In . SVG Version: 6.00 Build 0) --> <svg xmlns="http://www.w3.org/2000/svg" xmlns:xlink="http://www.w3.org/1999/xlink" version="1.1" id="Layer_1" x="0px" y="0px" viewBox="0 0 138 20" style="enable-background:new 0 0 138 20;" xml:space="preserve"> <style type="text/css"> .st0{fill:#FFFFFF;} </style> <path class="st0" d="M0,19.65V0.32h4.99V15.3h7.77v4.35H0z"></path> <path class="st0" d="M31.12,19.65l-0.96-2.78h-7.63l-0.96,2.78h-5.66L23.2,0.32h6.29l7.28,19.33H31.12z M26.36,5.25l-2.47,7.28h4.9 L26.36,5.25z"></path> <path class="st0" d="M53.32,19.65L45.14,8.46v11.19h-4.99V0.32h5.13l7.83,10.64V0.32h5.02v19.33H53.32z"></path> <path class="st0" d="M63.56,19.65V0.32h8.12c6.09,0,10.47,3.65,10.47,9.65s-4.38,9.68-10.44,9.68H63.56z M77.05,9.97 c0-2.99-1.8-5.3-5.34-5.3h-3.16V15.3h3.13C75.08,15.3,77.05,12.84,77.05,9.97z"></path> <path class="st0" d="M86.6,19.65V0.32h4.99v19.33H86.6z"></path> <path class="st0" d="M110.19,19.65l-8.18-11.19v11.19h-4.99V0.32h5.13l7.83,10.64V0.32H115v19.33H110.19z"></path> <path class="st0" d="M118.97,10c0-6.14,4.7-10,10.47-10c4.32,0,6.93,2.29,8.27,4.7l-4.18,2.17c-0.73-1.28-2.2-2.46-4.09-2.46 c-3.16,0-5.4,2.41-5.4,5.59c0,3.16,2.23,5.59,5.4,5.59c1.42,0,2.87-0.58,3.57-1.16v-1.51h-4.35V8.55H138v7.68 c-2.06,2.29-4.9,3.77-8.56,3.77C123.67,20,118.97,16.14,118.97,10z"></path> </svg> 