<?xml version="1.0" encoding="UTF-8"?> <!-- Generator: Adobe Illustrator 24.0.0, SVG Export Plug-In . SVG Version: 6.00 Build 0) --> <svg xmlns="http://www.w3.org/2000/svg" xmlns:xlink="http://www.w3.org/1999/xlink" version="1.1" id="Layer_1" x="0px" y="0px" viewBox="0 0 333.8 337" style="enable-background:new 0 0 333.8 337;" xml:space="preserve"> <style type="text/css"> .st0{fill:#F2F2F2;} .st1{fill:url(#SVGID_1_);} .st2{fill:#E2E2E2;} .st3{opacity:0.16;enable-background:new ;} .st4{fill:#FFFFFF;} .st5{fill:url(#SVGID_2_);} .st6{opacity:0.16;fill:#FFFFFF;enable-background:new ;} .st7{fill:url(#SVGID_3_);} .st8{fill:url(#SVGID_4_);} .st9{fill:url(#SVGID_5_);} </style> <g> <image style="overflow:visible;opacity:8.000000e-02;" width="167" height="329" transform="matrix(1 0 0 1 0.2436 2.9436)"> </image> <g> <path class="st0" d="M132.7,12.4H34.4c-13.9,0-25.1,11.3-25.1,25.1v259.9c0,13.9,11.3,25.1,25.1,25.1h98.2 c13.9,0,25.1-11.3,25.1-25.1V37.6C157.8,23.7,146.5,12.4,132.7,12.4z"></path> </g> </g> <g> <linearGradient id="SVGID_1_" gradientUnits="userSpaceOnUse" x1="83.5658" y1="881.3057" x2="83.5658" y2="527.4794" gradientTransform="matrix(1 0 0 1 0 -500.1178)"> <stop offset="0" style="stop-color:#5112E5"></stop> <stop offset="0.761" style="stop-color:#00A9FF"></stop> </linearGradient> <rect x="14.9" y="50.3" class="st1" width="137.3" height="238"></rect> </g> <g> <path class="st2" d="M94.7,30.1H72.3c-1.3,0-2.2,1-2.2,2.2l0,0c0,1.3,1,2.2,2.2,2.2h22.4c1.3,0,2.2-1,2.2-2.2l0,0 C97,31,96,30.1,94.7,30.1z"></path> </g> <g> <circle class="st2" cx="83.6" cy="305.6" r="10.4"></circle> </g> <g class="st3"> <path class="st4" d="M152.2,250v38.2H14.9v-48.3c9.3-2.3,20.4-1.8,33.5,4c8.9,4,17.6,12.3,29.8,20.1 C109.8,284,132.4,259.7,152.2,250z"></path> </g> <g class="st3"> <path class="st4" d="M152.2,264.8v23.4H14.9V260c5.3,0.2,10.9-1.5,17.1-6.2c5.8-4.4,11.2-7.5,16.4-9.8 c34.6-15.1,56.6,12.7,76.9,22.9C134.3,271.4,142.9,272.5,152.2,264.8z"></path> </g> <g class="st3"> <path class="st4" d="M152.2,283.7v4.6H14.9v-21.9c16.2,6,32.5,18,56.3,2.5c2.5-1.6,4.8-2.8,7.1-3.8c15.7-6.6,27.2,1.3,38.2,9.3 C127.6,282.4,138.2,290.5,152.2,283.7z"></path> </g> <g> <image style="overflow:visible;opacity:8.000000e-02;" width="164" height="257" transform="matrix(1 0 0 1 171.2436 40.9436)"> </image> <g> <g> <g> <linearGradient id="SVGID_2_" gradientUnits="userSpaceOnUse" x1="212.3667" y1="703.142" x2="212.3667" y2="539.8376" gradientTransform="matrix(1 0 0 1 0 -500.1178)"> <stop offset="0" style="stop-color:#5112E5"></stop> <stop offset="0.761" style="stop-color:#00A9FF"></stop> </linearGradient> <rect x="180.7" y="50.3" class="st5" width="63.4" height="109.8"></rect> <path class="st6" d="M244,142.5v17.7h-63.3v-22.3c4.3-1.1,9.4-0.8,15.5,1.9c4.1,1.8,8.1,5.7,13.8,9.3 C224.5,158.2,234.9,146.9,244,142.5z"></path> <path class="st6" d="M244,149.3v10.8h-63.3v-13c2.4,0.1,5-0.7,7.9-2.9c2.7-2,5.2-3.5,7.6-4.5c16-6.9,26.1,5.9,35.5,10.6 C235.8,152.3,239.8,152.8,244,149.3z"></path> <path class="st6" d="M244,158v2.1h-63.3V150c7.5,2.8,15,8.3,26,1.1c1.1-0.7,2.2-1.3,3.3-1.8c7.3-3.1,12.6,0.6,17.6,4.3 C232.7,157.4,237.6,161.2,244,158z"></path> </g> <g> <linearGradient id="SVGID_3_" gradientUnits="userSpaceOnUse" x1="293.3725" y1="703.142" x2="293.3725" y2="539.8376" gradientTransform="matrix(1 0 0 1 0 -500.1178)"> <stop offset="0" style="stop-color:#5112E5"></stop> <stop offset="0.761" style="stop-color:#00A9FF"></stop> </linearGradient> <rect x="261.7" y="50.3" class="st7" width="63.4" height="109.8"></rect> <path class="st6" d="M325,142.5v17.7h-63.3v-22.3c4.3-1.1,9.4-0.8,15.5,1.9c4.1,1.8,8.1,5.7,13.8,9.3 C305.5,158.2,315.9,146.9,325,142.5z"></path> <path class="st6" d="M325,149.3v10.8h-63.3v-13c2.4,0.1,5-0.7,7.9-2.9c2.7-2,5.2-3.5,7.6-4.5c16-6.9,26.1,5.9,35.5,10.6 C316.8,152.3,320.8,152.8,325,149.3z"></path> <path class="st6" d="M325,158v2.1h-63.3V150c7.5,2.8,15,8.3,26,1.1c1.1-0.7,2.2-1.3,3.3-1.8c7.3-3.1,12.6,0.6,17.6,4.3 C313.7,157.4,318.6,161.2,325,158z"></path> </g> <g> <linearGradient id="SVGID_4_" gradientUnits="userSpaceOnUse" x1="212.3667" y1="831.279" x2="212.3667" y2="667.9745" gradientTransform="matrix(1 0 0 1 0 -500.1178)"> <stop offset="0" style="stop-color:#5112E5"></stop> <stop offset="0.761" style="stop-color:#00A9FF"></stop> </linearGradient> <rect x="180.7" y="178.4" class="st8" width="63.4" height="109.8"></rect> <path class="st6" d="M244,270.6v17.7h-63.3V266c4.3-1.1,9.4-0.8,15.5,1.9c4.1,1.8,8.1,5.7,13.8,9.3 C224.5,286.3,234.9,275.1,244,270.6z"></path> <path class="st6" d="M244,277.5v10.8h-63.3v-13c2.4,0.1,5-0.7,7.9-2.9c2.7-2,5.2-3.5,7.6-4.5c16-6.9,26.1,5.9,35.5,10.6 C235.8,280.5,239.8,281,244,277.5z"></path> <path class="st6" d="M244,286.2v2.1h-63.3v-10.1c7.5,2.8,15,8.3,26,1.1c1.1-0.7,2.2-1.3,3.3-1.8c7.3-3.1,12.6,0.6,17.6,4.3 C232.7,285.5,237.6,289.3,244,286.2z"></path> </g> <g> <linearGradient id="SVGID_5_" gradientUnits="userSpaceOnUse" x1="293.3725" y1="831.279" x2="293.3725" y2="667.9745" gradientTransform="matrix(1 0 0 1 0 -500.1178)"> <stop offset="0" style="stop-color:#5112E5"></stop> <stop offset="0.761" style="stop-color:#00A9FF"></stop> </linearGradient> <rect x="261.7" y="178.4" class="st9" width="63.4" height="109.8"></rect> <path class="st6" d="M325,270.6v17.7h-63.3V266c4.3-1.1,9.4-0.8,15.5,1.9c4.1,1.8,8.1,5.7,13.8,9.3 C305.5,286.3,315.9,275.1,325,270.6z"></path> <path class="st6" d="M325,277.5v10.8h-63.3v-13c2.4,0.1,5-0.7,7.9-2.9c2.7-2,5.2-3.5,7.6-4.5c16-6.9,26.1,5.9,35.5,10.6 C316.8,280.5,320.8,281,325,277.5z"></path> <path class="st6" d="M325,286.2v2.1h-63.3v-10.1c7.5,2.8,15,8.3,26,1.1c1.1-0.7,2.2-1.3,3.3-1.8c7.3-3.1,12.6,0.6,17.6,4.3 C313.7,285.5,318.6,289.3,325,286.2z"></path> </g> </g> </g> </g> </svg> 