<?xml version="1.0" encoding="UTF-8"?> <!-- Generator: Adobe Illustrator 24.0.0, SVG Export Plug-In . SVG Version: 6.00 Build 0) --> <svg xmlns="http://www.w3.org/2000/svg" xmlns:xlink="http://www.w3.org/1999/xlink" version="1.1" id="Layer_1" x="0px" y="0px" viewBox="0 0 242.373 80" style="enable-background:new 0 0 242.373 80;" xml:space="preserve"> <style type="text/css"> .st0{fill-rule:evenodd;clip-rule:evenodd;fill:#E2E2E2;} .st1{fill:#E2E2E2;} </style> <g> <g> <path class="st0" d="M45.485,31.132c4.844,0,8.77,3.927,8.77,8.77s-3.926,8.77-8.77,8.77c-4.846,0-8.773-3.927-8.773-8.77 S40.639,31.132,45.485,31.132z"></path> </g> <g> <path class="st0" d="M57.649,7.955c-1.857,0.858-3.905,2.194-6.062,3.936c-5.791,4.677-12.049,12.217-17.404,21.483l-0.015,0.027 l-0.003,0.003l-0.003-0.003c-5.34,9.264-8.73,18.438-9.887,25.789c-1.051,6.679-0.318,11.608,2.453,13.206L26.724,72.4 c2.77,1.592,7.403-0.235,12.656-4.488c5.794-4.681,12.052-12.213,17.404-21.49l0.007,0.003c5.349-9.27,8.745-18.456,9.905-25.813 c0.432-2.749,0.562-5.201,0.373-7.25c1.345-0.351,2.551-1.061,3.502-2.011c0.206-0.204,0.397-0.419,0.577-0.644 c0.638,2.953,0.622,6.558-0.013,10.593c-1.216,7.728-4.691,17.26-10.142,26.832v0.015l-0.309,0.533 c-5.63,9.749-12.28,17.725-18.481,22.741c-6.734,5.445-13.175,7.499-17.722,4.871h-0.012c-4.548-2.625-5.988-9.233-4.637-17.786 c1.241-7.876,4.822-17.624,10.452-27.375l0.007-0.012l-0.003-0.003c5.63-9.745,12.281-17.722,18.484-22.735 c3.159-2.555,6.256-4.366,9.122-5.294c-0.336,0.867-0.521,1.811-0.521,2.798C57.371,6.601,57.464,7.296,57.649,7.955z"></path> </g> <g> <path class="st0" d="M83,39.902c0-3.199-3.893-6.299-10.195-8.721c-6.941-2.671-16.597-4.328-27.319-4.325 c-10.723-0.003-20.381,1.654-27.322,4.325c-2.524,0.969-4.659,2.049-6.315,3.196c-1.175-1.154-2.721-1.93-4.432-2.147 c2.236-2.014,5.352-3.788,9.143-5.248c7.452-2.865,17.682-4.639,28.922-4.639c11.245,0,21.473,1.774,28.927,4.642 c8.098,3.112,13.104,7.666,13.104,12.916c0,5.248-5.006,9.801-13.104,12.916c-7.453,2.869-17.682,4.642-28.923,4.642 c-11.241,0-21.473-1.771-28.926-4.642c-3.791-1.459-6.907-3.233-9.143-5.248c1.712-0.213,3.257-0.99,4.432-2.144 c1.656,1.15,3.791,2.226,6.315,3.195c6.941,2.672,16.599,4.323,27.322,4.323s20.379-1.651,27.319-4.323 C79.107,46.201,83.003,43.103,83,39.902z"></path> </g> <g> <path class="st0" d="M66.981,67.208c0.308-2.19,0.204-4.913-0.287-8.017c-1.157-7.351-4.547-16.525-9.883-25.789l-0.007,0.003 v-0.003l-0.021-0.027c-5.352-9.27-11.612-16.803-17.402-21.485c-5.253-4.249-9.889-6.081-12.653-4.486l-0.167,0.096 c-2.631,1.69-3.317,6.558-2.286,13.113c1.16,7.358,4.547,16.544,9.908,25.813v-0.003c5.352,9.276,11.612,16.809,17.404,21.49 c1.32,1.066,2.598,1.983,3.822,2.726c-0.37,0.904-0.574,1.891-0.574,2.925c0,0.691,0.093,1.366,0.266,2.008 c-2.048-1.009-4.177-2.403-6.337-4.149c-6.196-5.016-12.851-12.993-18.481-22.741l-0.308-0.533v-0.015 C24.525,38.56,21.048,29.028,19.832,21.3c-1.351-8.551,0.093-15.156,4.64-17.787V3.511c0.074-0.044,0.148-0.087,0.222-0.127 l0.32-0.185h0.047c4.51-2.137,10.692-0.03,17.139,5.183c6.201,5.016,12.851,12.986,18.484,22.735l-0.005,0.003l0.005,0.012 c5.627,9.751,9.209,19.499,10.452,27.375c0.873,5.534,0.58,10.25-0.965,13.603c-0.296-1.551-1.055-2.939-2.132-4.016 C67.715,67.77,67.36,67.474,66.981,67.208z"></path> </g> <g> <path class="st0" d="M65.106,0c3.247,0,5.882,2.635,5.882,5.885c0,3.252-2.635,5.886-5.882,5.886 c-3.252,0-5.886-2.635-5.886-5.886C59.219,2.635,61.854,0,65.106,0z"></path> </g> <g> <path class="st0" d="M62.569,68.297c2.91,0,5.266,2.357,5.266,5.266c0,2.906-2.356,5.262-5.266,5.262 c-2.906,0-5.262-2.356-5.262-5.262C57.307,70.655,59.663,68.297,62.569,68.297z"></path> <path class="st1" d="M62.569,80c-3.549,0-6.437-2.887-6.437-6.436c0-3.552,2.888-6.442,6.437-6.442 c3.552,0,6.441,2.89,6.441,6.442C69.01,77.113,66.12,80,62.569,80z M62.569,69.472c-2.253,0-4.087,1.836-4.087,4.091 c0,2.253,1.833,4.086,4.087,4.086c2.256,0,4.091-1.833,4.091-4.086C66.66,71.308,64.824,69.472,62.569,69.472z"></path> </g> <g> <path class="st0" d="M6.438,34.636c2.909,0,5.266,2.357,5.266,5.266c0,2.906-2.357,5.263-5.266,5.263 c-2.906,0-5.263-2.357-5.263-5.263C1.175,36.993,3.532,34.636,6.438,34.636z"></path> <path class="st1" d="M6.438,46.339C2.888,46.339,0,43.452,0,39.902c0-3.552,2.888-6.441,6.438-6.441 c3.552,0,6.441,2.89,6.441,6.441C12.879,43.452,9.99,46.339,6.438,46.339z M6.438,35.811c-2.254,0-4.087,1.835-4.087,4.091 c0,2.254,1.834,4.088,4.087,4.088c2.256,0,4.091-1.834,4.091-4.088C10.529,37.646,8.694,35.811,6.438,35.811z"></path> </g> <g> <path class="st0" d="M62.569,67.677c3.252,0,5.886,2.635,5.886,5.886c0,3.247-2.635,5.882-5.886,5.882 c-3.247,0-5.882-2.635-5.882-5.882C56.687,70.312,59.321,67.677,62.569,67.677z"></path> </g> <g> <path class="st0" d="M6.438,34.015c3.252,0,5.886,2.635,5.886,5.886c0,3.248-2.635,5.883-5.886,5.883 c-3.248,0-5.882-2.635-5.882-5.883C0.556,36.65,3.19,34.015,6.438,34.015z"></path> </g> </g> <g> <path class="st1" d="M114.502,41.981c0-2.311-1.368-3.537-3.255-3.537c-2.169,0-3.396,1.556-3.396,3.537v14.763h-7.876V31.982 h7.688v2.547c0.943-1.462,3.113-3.161,6.226-3.161c7.736,0,8.49,6.603,8.49,11.65v13.725h-7.876V41.981z"></path> <path class="st1" d="M133.557,46.414c0.189,2.217,2.311,4.104,5.236,4.104c2.971,0,4.716-1.934,5.188-2.641l5.188,4.009 c-0.708,1.462-4.104,5.471-10.518,5.471c-8.159,0-13.159-5.612-13.159-12.923c0-7.264,4.906-13.065,12.169-13.065 c7.876,0,12.169,5.046,12.169,13.489c0,0.472,0,0.991-0.047,1.556H133.557z M133.794,41.415h8.018 c-0.094-1.981-1.556-3.679-4.009-3.679C135.208,37.736,133.982,39.67,133.794,41.415z"></path> <path class="st1" d="M160.349,56.744h-7.358v-34.1h7.877v11.225c0.519-0.613,2.83-2.5,6.603-2.5 c7.169,0,11.697,5.329,11.697,13.018c0,7.594-4.999,12.97-12.121,12.97c-3.632,0-5.99-1.745-6.698-2.547V56.744z M165.962,50.471 c3.16,0,5.33-2.359,5.33-6.037c0-3.632-2.123-6.131-5.33-6.131c-3.113,0-5.329,2.217-5.329,6.131 C160.633,47.735,162.566,50.471,165.962,50.471z"></path> <path class="st1" d="M190.16,46.745c0,2.311,1.367,3.538,3.254,3.538c2.169,0,3.396-1.556,3.396-3.538V31.982h7.876v24.762h-7.688 v-2.547c-0.943,1.462-3.113,3.159-6.226,3.159c-7.735,0-8.49-6.603-8.49-11.649V31.982h7.877V46.745z"></path> <path class="st1" d="M209.027,22.643h7.877v34.1h-7.877V22.643z"></path> <path class="st1" d="M229.733,40.849c2.169,0,3.868,0.519,4.764,0.896v-0.896c0-1.51-1.226-2.689-3.773-2.689 c-2.17,0-4.292,0.613-6.226,1.556l-2.924-5.282c2.641-1.745,5.99-3.066,10.093-3.066c8.537,0,10.706,4.386,10.706,10.046v15.329 h-7.027l-0.425-1.368c-1.273,1.274-3.066,1.981-5.612,1.981c-4.858,0-9.197-2.924-9.197-8.301 C220.111,44.103,223.884,40.849,229.733,40.849z M231.337,51.32c1.886,0,3.301-0.896,3.301-2.547c0-1.697-1.462-2.641-3.349-2.641 s-3.301,1.038-3.301,2.641C227.988,50.424,229.497,51.32,231.337,51.32z"></path> </g> </svg> 