<?xml version="1.0" encoding="UTF-8"?> <!-- Generator: Adobe Illustrator 24.0.0, SVG Export Plug-In . SVG Version: 6.00 Build 0) --> <svg xmlns="http://www.w3.org/2000/svg" xmlns:xlink="http://www.w3.org/1999/xlink" version="1.1" id="Layer_1" x="0px" y="0px" viewBox="0 0 97.6 64.3" style="enable-background:new 0 0 97.6 64.3;" xml:space="preserve"> <style type="text/css"> .st0{opacity:0.5;} .st1{fill:#F8F9FA;} .st2{opacity:3.000000e-02;} .st3{fill:#5112E5;} .st4{opacity:6.000000e-02;fill:#00A9FF;enable-background:new ;} </style> <g class="st0"> <circle class="st1" cx="40" cy="32.2" r="32.2"></circle> </g> <g class="st2"> <rect x="90.2" y="49.6" class="st3" width="7.4" height="3.7"></rect> </g> <g class="st2"> <rect x="75.3" y="49.6" class="st3" width="7.4" height="3.7"></rect> </g> <g class="st2"> <rect x="60.5" y="49.6" class="st3" width="7.4" height="3.7"></rect> </g> <g class="st2"> <rect x="45.6" y="49.6" class="st3" width="7.4" height="3.7"></rect> </g> <g class="st2"> <rect x="81.8" y="41.2" class="st3" width="7.4" height="3.7"></rect> </g> <g class="st2"> <rect x="67" y="41.2" class="st3" width="7.4" height="3.7"></rect> </g> <g class="st2"> <rect x="52.1" y="41.2" class="st3" width="7.4" height="3.7"></rect> </g> <g class="st2"> <rect x="37.3" y="41.2" class="st3" width="7.4" height="3.7"></rect> </g> <g class="st2"> <rect x="90.2" y="32.8" class="st3" width="7.4" height="3.7"></rect> </g> <g class="st2"> <rect x="75.3" y="32.8" class="st3" width="7.4" height="3.7"></rect> </g> <g class="st2"> <rect x="60.5" y="32.8" class="st3" width="7.4" height="3.7"></rect> </g> <g class="st2"> <rect x="45.6" y="32.8" class="st3" width="7.4" height="3.7"></rect> </g> <g class="st2"> <rect x="81.8" y="24.5" class="st3" width="7.4" height="3.7"></rect> </g> <g class="st2"> <rect x="67" y="24.5" class="st3" width="7.4" height="3.7"></rect> </g> <g class="st2"> <rect x="52.1" y="24.5" class="st3" width="7.4" height="3.7"></rect> </g> <g class="st2"> <rect x="37.3" y="24.5" class="st3" width="7.4" height="3.7"></rect> </g> <path class="st4" d="M16,18.4H0v16h16V18.4z M3.6,30.7V22h8.7v8.7H3.6z"></path> </svg> 